<svg width="142" height="29" viewBox="0 0 142 29" fill="none" xmlns="http://www.w3.org/2000/svg">
<path d="M5.688 24C5.592 24 5.504 23.976 5.424 23.928C5.344 23.864 5.296 23.784 5.28 23.688L0.552 7.608C0.536 7.576 0.528 7.536 0.528 7.488C0.528 7.296 0.64 7.2 0.864 7.2H4.968C5.176 7.2 5.304 7.304 5.352 7.512L7.752 17.64C7.768 17.704 7.792 17.736 7.824 17.736C7.856 17.736 7.88 17.704 7.896 17.64L10.224 7.512C10.272 7.304 10.4 7.2 10.608 7.2H14.616C14.744 7.2 14.832 7.24 14.88 7.32C14.944 7.384 14.96 7.48 14.928 7.608L10.152 23.688C10.136 23.784 10.088 23.864 10.008 23.928C9.928 23.976 9.84 24 9.744 24H5.688ZM20.0441 11.328C21.1321 11.328 22.1321 11.512 23.0441 11.88C23.9561 12.248 24.6761 12.752 25.2041 13.392C25.7321 14.032 25.9961 14.728 25.9961 15.48V23.64C25.9961 23.752 25.9641 23.84 25.9001 23.904C25.8361 23.968 25.7481 24 25.6361 24H21.8441C21.7321 24 21.6441 23.968 21.5801 23.904C21.5161 23.84 21.4841 23.752 21.4841 23.64V22.8C21.4841 22.736 21.4681 22.704 21.4361 22.704C21.4201 22.688 21.3961 22.704 21.3641 22.752C21.0921 23.248 20.7161 23.616 20.2361 23.856C19.7561 24.08 19.1241 24.192 18.3401 24.192C17.0281 24.192 15.9961 23.896 15.2441 23.304C14.4921 22.696 14.1161 21.816 14.1161 20.664C14.1161 19.448 14.5401 18.512 15.3881 17.856C16.2521 17.2 17.5001 16.872 19.1321 16.872H21.3641C21.4441 16.872 21.4841 16.832 21.4841 16.752V16.32C21.4841 15.984 21.3561 15.712 21.1001 15.504C20.8601 15.296 20.5321 15.192 20.1161 15.192C19.8281 15.192 19.5721 15.24 19.3481 15.336C19.1241 15.432 18.9641 15.56 18.8681 15.72C18.8041 15.832 18.7401 15.912 18.6761 15.96C18.6281 15.992 18.5561 16 18.4601 15.984L14.5961 15.504C14.3721 15.472 14.2601 15.376 14.2601 15.216C14.3241 14.496 14.6121 13.84 15.1241 13.248C15.6361 12.656 16.3161 12.192 17.1641 11.856C18.0281 11.504 18.9881 11.328 20.0441 11.328ZM19.7321 21.072C20.2441 21.072 20.6601 20.936 20.9801 20.664C21.3161 20.392 21.4841 20.024 21.4841 19.56V19.248C21.4841 19.168 21.4441 19.128 21.3641 19.128H20.1641C19.1561 19.128 18.6521 19.456 18.6521 20.112C18.6521 20.4 18.7401 20.632 18.9161 20.808C19.1081 20.984 19.3801 21.072 19.7321 21.072ZM33.5571 24.192C32.1971 24.192 31.0131 23.864 30.0051 23.208C28.9971 22.536 28.2611 21.608 27.7971 20.424C27.4771 19.608 27.3171 18.696 27.3171 17.688C27.3171 16.696 27.4771 15.792 27.7971 14.976C28.2451 13.84 28.9811 12.952 30.0051 12.312C31.0291 11.656 32.2131 11.328 33.5571 11.328C34.9171 11.328 36.1171 11.672 37.1571 12.36C38.2131 13.032 38.9251 13.88 39.2931 14.904C39.4051 15.192 39.4771 15.496 39.5091 15.816V15.888C39.5091 16.048 39.4051 16.152 39.1971 16.2L35.4771 16.8H35.4051C35.1971 16.8 35.0851 16.696 35.0691 16.488L34.9731 16.152C34.8931 15.88 34.7171 15.656 34.4451 15.48C34.1891 15.288 33.8851 15.192 33.5331 15.192C32.8931 15.192 32.4371 15.48 32.1651 16.056C31.9731 16.456 31.8771 17.008 31.8771 17.712C31.8771 18.368 31.9651 18.92 32.1411 19.368C32.4131 20.008 32.8771 20.328 33.5331 20.328C34.2371 20.328 34.7171 19.96 34.9731 19.224L34.9971 19.128C35.0451 18.856 35.1811 18.744 35.4051 18.792L39.1491 19.416C39.3571 19.464 39.4611 19.576 39.4611 19.752C39.4611 19.944 39.4051 20.208 39.2931 20.544C38.8771 21.712 38.1491 22.616 37.1091 23.256C36.0851 23.88 34.9011 24.192 33.5571 24.192ZM46.1769 11.328C47.2649 11.328 48.2649 11.512 49.1769 11.88C50.0889 12.248 50.8089 12.752 51.3369 13.392C51.8649 14.032 52.1289 14.728 52.1289 15.48V23.64C52.1289 23.752 52.0969 23.84 52.0329 23.904C51.9689 23.968 51.8809 24 51.7689 24H47.9769C47.8649 24 47.7769 23.968 47.7129 23.904C47.6489 23.84 47.6169 23.752 47.6169 23.64V22.8C47.6169 22.736 47.6009 22.704 47.5689 22.704C47.5529 22.688 47.5289 22.704 47.4969 22.752C47.2249 23.248 46.8489 23.616 46.3689 23.856C45.8889 24.08 45.2569 24.192 44.4729 24.192C43.1609 24.192 42.1289 23.896 41.3769 23.304C40.6249 22.696 40.2489 21.816 40.2489 20.664C40.2489 19.448 40.6729 18.512 41.5209 17.856C42.3849 17.2 43.6329 16.872 45.2649 16.872H47.4969C47.5769 16.872 47.6169 16.832 47.6169 16.752V16.32C47.6169 15.984 47.4889 15.712 47.2329 15.504C46.9929 15.296 46.6649 15.192 46.2489 15.192C45.9609 15.192 45.7049 15.24 45.4809 15.336C45.2569 15.432 45.0969 15.56 45.0009 15.72C44.9369 15.832 44.8729 15.912 44.8089 15.96C44.7609 15.992 44.6889 16 44.5929 15.984L40.7289 15.504C40.5049 15.472 40.3929 15.376 40.3929 15.216C40.4569 14.496 40.7449 13.84 41.2569 13.248C41.7689 12.656 42.4489 12.192 43.2969 11.856C44.1609 11.504 45.1209 11.328 46.1769 11.328ZM45.8649 21.072C46.3769 21.072 46.7929 20.936 47.1129 20.664C47.4489 20.392 47.6169 20.024 47.6169 19.56V19.248C47.6169 19.168 47.5769 19.128 47.4969 19.128H46.2969C45.2889 19.128 44.7849 19.456 44.7849 20.112C44.7849 20.4 44.8729 20.632 45.0489 20.808C45.2409 20.984 45.5129 21.072 45.8649 21.072ZM61.5223 14.76C61.5223 14.872 61.4903 14.96 61.4263 15.024C61.3623 15.088 61.2743 15.12 61.1623 15.12H59.1703C59.0903 15.12 59.0503 15.16 59.0503 15.24V19.008C59.0503 19.808 59.3383 20.208 59.9143 20.208H60.8023C60.9143 20.208 61.0023 20.24 61.0663 20.304C61.1303 20.368 61.1623 20.456 61.1623 20.568V23.64C61.1623 23.864 61.0423 23.992 60.8023 24.024C60.1783 24.072 59.5783 24.096 59.0023 24.096C57.5463 24.096 56.4743 23.872 55.7863 23.424C55.0983 22.976 54.7463 22.128 54.7303 20.88V15.24C54.7303 15.16 54.6903 15.12 54.6103 15.12H53.3143C53.2023 15.12 53.1143 15.088 53.0503 15.024C52.9863 14.96 52.9543 14.872 52.9543 14.76V11.88C52.9543 11.768 52.9863 11.68 53.0503 11.616C53.1143 11.552 53.2023 11.52 53.3143 11.52H54.6103C54.6903 11.52 54.7303 11.48 54.7303 11.4V8.52C54.7303 8.408 54.7623 8.32 54.8263 8.256C54.8903 8.192 54.9783 8.16 55.0903 8.16H58.6903C58.8023 8.16 58.8903 8.192 58.9543 8.256C59.0183 8.32 59.0503 8.408 59.0503 8.52V11.4C59.0503 11.48 59.0903 11.52 59.1703 11.52H61.1623C61.2743 11.52 61.3623 11.552 61.4263 11.616C61.4903 11.68 61.5223 11.768 61.5223 11.88V14.76ZM65.0173 10.68C64.3613 10.68 63.8173 10.472 63.3853 10.056C62.9693 9.624 62.7613 9.08 62.7613 8.424C62.7613 7.752 62.9693 7.208 63.3853 6.792C63.8173 6.376 64.3613 6.168 65.0173 6.168C65.6733 6.168 66.2093 6.376 66.6253 6.792C67.0573 7.208 67.2733 7.752 67.2733 8.424C67.2733 9.064 67.0573 9.6 66.6253 10.032C66.2093 10.464 65.6733 10.68 65.0173 10.68ZM63.0973 24C62.9853 24 62.8973 23.968 62.8333 23.904C62.7693 23.84 62.7373 23.752 62.7373 23.64V11.88C62.7373 11.768 62.7693 11.68 62.8333 11.616C62.8973 11.552 62.9853 11.52 63.0973 11.52H66.8893C67.0013 11.52 67.0893 11.552 67.1533 11.616C67.2173 11.68 67.2493 11.768 67.2493 11.88V23.64C67.2493 23.752 67.2173 23.84 67.1533 23.904C67.0893 23.968 67.0013 24 66.8893 24H63.0973ZM74.7351 24.192C73.2151 24.192 71.9271 23.784 70.8711 22.968C69.8311 22.152 69.1431 21.048 68.8071 19.656C68.6471 19.08 68.5671 18.44 68.5671 17.736C68.5671 16.952 68.6631 16.24 68.8551 15.6C69.2391 14.272 69.9431 13.232 70.9671 12.48C72.0071 11.712 73.2711 11.328 74.7591 11.328C76.2471 11.328 77.4951 11.712 78.5031 12.48C79.5271 13.232 80.2311 14.256 80.6151 15.552C80.8071 16.224 80.9031 16.936 80.9031 17.688C80.9031 18.296 80.8391 18.904 80.7111 19.512C80.3751 20.952 79.6791 22.096 78.6231 22.944C77.5831 23.776 76.2871 24.192 74.7351 24.192ZM74.7351 20.328C75.1511 20.328 75.4871 20.192 75.7431 19.92C75.9991 19.632 76.1751 19.256 76.2711 18.792C76.3351 18.488 76.3671 18.128 76.3671 17.712C76.3671 17.344 76.3271 16.976 76.2471 16.608C76.0071 15.664 75.5031 15.192 74.7351 15.192C73.9351 15.192 73.4311 15.664 73.2231 16.608C73.1431 16.88 73.1031 17.248 73.1031 17.712C73.1031 18.128 73.1351 18.488 73.1991 18.792C73.4391 19.816 73.9511 20.328 74.7351 20.328ZM89.7019 11.328C90.5019 11.328 91.2219 11.504 91.8619 11.856C92.5019 12.208 93.0059 12.728 93.3739 13.416C93.7579 14.088 93.9499 14.888 93.9499 15.816V23.64C93.9499 23.752 93.9179 23.84 93.8539 23.904C93.7899 23.968 93.7019 24 93.5899 24H89.7979C89.6859 24 89.5979 23.968 89.5339 23.904C89.4699 23.84 89.4379 23.752 89.4379 23.64V16.8C89.4379 16.32 89.3099 15.936 89.0539 15.648C88.8139 15.344 88.4939 15.192 88.0939 15.192C87.6779 15.192 87.3419 15.344 87.0859 15.648C86.8459 15.936 86.7259 16.32 86.7259 16.8V23.64C86.7259 23.752 86.6939 23.84 86.6299 23.904C86.5659 23.968 86.4779 24 86.3659 24H82.5739C82.4619 24 82.3739 23.968 82.3099 23.904C82.2459 23.84 82.2139 23.752 82.2139 23.64V11.88C82.2139 11.768 82.2459 11.68 82.3099 11.616C82.3739 11.552 82.4619 11.52 82.5739 11.52H86.3659C86.4779 11.52 86.5659 11.552 86.6299 11.616C86.6939 11.68 86.7259 11.768 86.7259 11.88V12.744C86.7259 12.808 86.7419 12.848 86.7739 12.864C86.8059 12.88 86.8299 12.864 86.8459 12.816C87.4539 11.824 88.4059 11.328 89.7019 11.328ZM108.901 7.56C108.901 7.448 108.933 7.36 108.997 7.296C109.061 7.232 109.149 7.2 109.261 7.2H113.053C113.165 7.2 113.253 7.232 113.317 7.296C113.381 7.36 113.413 7.448 113.413 7.56V23.64C113.413 23.752 113.381 23.84 113.317 23.904C113.253 23.968 113.165 24 113.053 24H109.261C109.149 24 109.061 23.968 108.997 23.904C108.933 23.84 108.901 23.752 108.901 23.64V17.544C108.901 17.464 108.861 17.424 108.781 17.424H105.037C104.957 17.424 104.917 17.464 104.917 17.544V23.64C104.917 23.752 104.885 23.84 104.821 23.904C104.757 23.968 104.669 24 104.557 24H100.765C100.653 24 100.565 23.968 100.501 23.904C100.437 23.84 100.405 23.752 100.405 23.64V7.56C100.405 7.448 100.437 7.36 100.501 7.296C100.565 7.232 100.653 7.2 100.765 7.2H104.557C104.669 7.2 104.757 7.232 104.821 7.296C104.885 7.36 104.917 7.448 104.917 7.56V13.44C104.917 13.52 104.957 13.56 105.037 13.56H108.781C108.861 13.56 108.901 13.52 108.901 13.44V7.56ZM122.085 11.88C122.085 11.768 122.117 11.68 122.181 11.616C122.245 11.552 122.333 11.52 122.445 11.52H126.237C126.349 11.52 126.437 11.552 126.501 11.616C126.565 11.68 126.597 11.768 126.597 11.88V23.64C126.597 23.752 126.565 23.84 126.501 23.904C126.437 23.968 126.349 24 126.237 24H122.445C122.333 24 122.245 23.968 122.181 23.904C122.117 23.84 122.085 23.752 122.085 23.64V22.848C122.085 22.8 122.069 22.768 122.037 22.752C122.005 22.736 121.973 22.752 121.941 22.8C121.285 23.728 120.261 24.192 118.869 24.192C117.653 24.192 116.685 23.8 115.965 23.016C115.245 22.216 114.885 21.112 114.885 19.704V11.88C114.885 11.768 114.917 11.68 114.981 11.616C115.045 11.552 115.133 11.52 115.245 11.52H119.037C119.149 11.52 119.237 11.552 119.301 11.616C119.365 11.68 119.397 11.768 119.397 11.88V18.72C119.397 19.2 119.517 19.592 119.757 19.896C120.013 20.184 120.341 20.328 120.741 20.328C121.093 20.328 121.381 20.224 121.605 20.016C121.845 19.792 121.997 19.496 122.061 19.128C122.077 19.096 122.085 19.048 122.085 18.984V11.88ZM140.223 14.64C140.575 15.536 140.751 16.56 140.751 17.712C140.751 18.704 140.631 19.6 140.391 20.4C140.039 21.568 139.431 22.496 138.567 23.184C137.719 23.856 136.759 24.192 135.687 24.192C134.423 24.192 133.495 23.752 132.903 22.872C132.871 22.824 132.839 22.808 132.807 22.824C132.775 22.84 132.759 22.872 132.759 22.92V23.64C132.759 23.752 132.727 23.84 132.663 23.904C132.599 23.968 132.511 24 132.399 24H128.607C128.495 24 128.407 23.968 128.343 23.904C128.279 23.84 128.247 23.752 128.247 23.64V7.56C128.247 7.448 128.279 7.36 128.343 7.296C128.407 7.232 128.495 7.2 128.607 7.2H132.399C132.511 7.2 132.599 7.232 132.663 7.296C132.727 7.36 132.759 7.448 132.759 7.56V12.384C132.759 12.432 132.775 12.464 132.807 12.48C132.839 12.48 132.871 12.464 132.903 12.432C133.463 11.696 134.327 11.328 135.495 11.328C136.631 11.328 137.607 11.64 138.423 12.264C139.239 12.872 139.839 13.664 140.223 14.64ZM135.663 19.536C135.903 19.072 136.023 18.488 136.023 17.784C136.023 17.032 135.903 16.432 135.663 15.984C135.391 15.456 134.967 15.192 134.391 15.192C133.847 15.192 133.431 15.44 133.143 15.936C132.887 16.4 132.759 17.016 132.759 17.784C132.759 18.488 132.879 19.064 133.119 19.512C133.407 20.056 133.831 20.328 134.391 20.328C134.951 20.328 135.375 20.064 135.663 19.536Z" fill="#112B3C"/>
<circle cx="65" cy="8" r="3" fill="#E61C5D"/>
</svg>
