<svg width="96" height="24" viewBox="0 0 96 24" fill="none" xmlns="http://www.w3.org/2000/svg">
<path d="M22 16.19C22 19.83 19.83 22 16.19 22H15C14.45 22 14 21.55 14 21V15.23C14 14.96 14.22 14.73 14.49 14.73L16.25 14.7C16.39 14.69 16.51 14.59 16.54 14.45L16.89 12.54C16.92 12.36 16.78 12.19 16.59 12.19L14.46 12.22C14.18 12.22 13.96 12 13.95 11.73L13.91 9.28C13.91 9.12 14.04 8.98001 14.21 8.98001L16.61 8.94C16.78 8.94 16.91 8.81001 16.91 8.64001L16.87 6.23999C16.87 6.06999 16.74 5.94 16.57 5.94L13.87 5.98001C12.21 6.01001 10.89 7.37 10.92 9.03L10.97 11.78C10.98 12.06 10.76 12.28 10.48 12.29L9.28 12.31C9.11 12.31 8.98001 12.44 8.98001 12.61L9.01001 14.51C9.01001 14.68 9.14 14.81 9.31 14.81L10.51 14.79C10.79 14.79 11.01 15.01 11.02 15.28L11.11 20.98C11.12 21.54 10.67 22 10.11 22H7.81C4.17 22 2 19.83 2 16.18V7.81C2 4.17 4.17 2 7.81 2H16.19C19.83 2 22 4.17 22 7.81V16.19Z" fill="#E61C5D"/>
<path d="M52.19 2H43.81C40.17 2 38 4.17 38 7.81V16.18C38 19.83 40.17 22 43.81 22H52.18C55.82 22 57.99 19.83 57.99 16.19V7.81C58 4.17 55.83 2 52.19 2ZM48 15.88C45.86 15.88 44.12 14.14 44.12 12C44.12 9.86 45.86 8.12 48 8.12C50.14 8.12 51.88 9.86 51.88 12C51.88 14.14 50.14 15.88 48 15.88ZM53.92 6.88C53.87 7 53.8 7.11 53.71 7.21C53.61 7.3 53.5 7.37 53.38 7.42C53.26 7.47 53.13 7.5 53 7.5C52.73 7.5 52.48 7.4 52.29 7.21C52.2 7.11 52.13 7 52.08 6.88C52.03 6.76 52 6.63 52 6.5C52 6.37 52.03 6.24 52.08 6.12C52.13 5.99 52.2 5.89 52.29 5.79C52.52 5.56 52.87 5.45 53.19 5.52C53.26 5.53 53.32 5.55 53.38 5.58C53.44 5.6 53.5 5.63 53.56 5.67C53.61 5.7 53.66 5.75 53.71 5.79C53.8 5.89 53.87 5.99 53.92 6.12C53.97 6.24 54 6.37 54 6.5C54 6.63 53.97 6.76 53.92 6.88Z" fill="#E61C5D"/>
<path d="M89 4H79C76 4 74 6 74 9V15C74 18 76 20 79 20H89C92 20 94 18 94 15V9C94 6 92 4 89 4ZM85.89 13.03L83.42 14.51C82.42 15.11 81.6 14.65 81.6 13.48V10.51C81.6 9.34001 82.42 8.88001 83.42 9.48001L85.89 10.96C86.84 11.54 86.84 12.46 85.89 13.03Z" fill="#E61C5D"/>
</svg>
